<svg width="109" height="102" viewBox="0 0 109 102" fill="none" xmlns="http://www.w3.org/2000/svg">
<path d="M102.985 101.241H92.512C91.1236 101.239 89.7926 100.687 88.8109 99.7051C87.8292 98.7234 87.277 97.3923 87.2754 96.004V73.3121C87.277 71.9238 87.8292 70.5928 88.8109 69.6111C89.7926 68.6293 91.1236 68.0771 92.512 68.0756H102.985C104.373 68.0771 105.705 68.6293 106.686 69.6111C107.668 70.5928 108.22 71.9238 108.222 73.3121V96.004C108.22 97.3923 107.668 98.7234 106.686 99.7051C105.705 100.687 104.373 101.239 102.985 101.241ZM92.512 71.5666C92.0492 71.5671 91.6055 71.7512 91.2783 72.0785C90.951 72.4057 90.767 72.8494 90.7664 73.3121V96.004C90.767 96.4668 90.951 96.9104 91.2783 97.2377C91.6055 97.5649 92.0492 97.749 92.512 97.7495H102.985C103.448 97.749 103.892 97.5649 104.219 97.2377C104.546 96.9104 104.73 96.4668 104.731 96.004V73.3121C104.73 72.8494 104.546 72.4057 104.219 72.0785C103.892 71.7512 103.448 71.5671 102.985 71.5666H92.512Z" fill="#F8FFFF"/>
<path d="M97.7485 96.004C98.7125 96.004 99.494 95.2225 99.494 94.2585C99.494 93.2944 98.7125 92.5129 97.7485 92.5129C96.7844 92.5129 96.0029 93.2944 96.0029 94.2585C96.0029 95.2225 96.7844 96.004 97.7485 96.004Z" fill="#F8FFFF"/>
<path d="M96.0029 75.0577C96.0029 76.0217 96.7844 76.8032 97.7485 76.8032C98.7125 76.8032 99.494 76.0217 99.494 75.0577C99.494 74.0936 98.7125 73.3121 97.7485 73.3121C96.7844 73.3121 96.0029 74.0936 96.0029 75.0577Z" fill="#F8FFFF"/>
<path d="M3.4902 69.821H3.48584L7.97841 90.7674L3.4902 69.821ZM7.97841 90.7674V90.7936C8.15513 90.7761 8.33404 90.7674 8.51514 90.7674H7.97841ZM3.4902 69.821H3.48584L7.97841 90.7674L3.4902 69.821ZM7.97841 90.7674V90.7936C8.15513 90.7761 8.33404 90.7674 8.51514 90.7674H7.97841Z" fill="#F8FFFF"/>
<path d="M61.5398 90.7675H40.1811C40.1809 90.5217 40.1546 90.2767 40.1026 90.0365L35.6122 69.0902C35.4419 68.3107 35.0111 67.6125 34.3908 67.1107C33.7704 66.609 32.9976 66.3336 32.1997 66.3301H3.49013C2.96967 66.3301 2.45579 66.4464 1.98613 66.6707C1.51647 66.895 1.10292 67.2215 0.775749 67.6263C0.448583 68.031 0.216091 68.5039 0.0952972 69.0101C-0.0254968 69.5164 -0.0315339 70.0432 0.0776276 70.5521L4.5658 91.4984C4.62367 91.7689 4.71453 92.0312 4.83636 92.2796C4.09721 93.009 3.59171 93.9418 3.38414 94.9593C3.17657 95.9768 3.27632 97.0331 3.67069 97.9937C4.06507 98.9544 4.73625 99.7761 5.59888 100.354C6.46151 100.932 7.4766 101.241 8.51507 101.241H61.5398C62.9287 101.241 64.2606 100.689 65.2427 99.7069C66.2247 98.7248 66.7764 97.3929 66.7764 96.004C66.7764 94.6152 66.2247 93.2833 65.2427 92.3012C64.2606 91.3192 62.9287 90.7675 61.5398 90.7675H61.5398ZM32.1997 69.8211L36.6879 90.7675H14.4106L9.91804 69.8211H32.1997H32.1997ZM3.48577 69.8211H6.42916C6.42928 70.0669 6.45562 70.3119 6.50774 70.5521L10.8388 90.7675H8.51507C8.33395 90.7675 8.15504 90.7762 7.97832 90.7937V90.7675L3.48577 69.8211ZM35.3569 97.7496H8.51507C8.05213 97.7496 7.60815 97.5657 7.2808 97.2383C6.95345 96.911 6.76954 96.467 6.76954 96.004C6.76954 95.5411 6.95345 95.0971 7.2808 94.7698C7.60815 94.4424 8.05213 94.2585 8.51507 94.2585H35.3569C35.8199 94.2585 36.2638 94.4424 36.5912 94.7698C36.9185 95.0971 37.1024 95.5411 37.1024 96.004C37.1024 96.467 36.9185 96.911 36.5912 97.2383C36.2638 97.5657 35.8199 97.7496 35.3569 97.7496H35.3569ZM61.5398 97.7496H40.2924C40.6939 96.6205 40.6939 95.3876 40.2924 94.2585H61.5398C62.0028 94.2585 62.4468 94.4424 62.7741 94.7698C63.1015 95.0971 63.2854 95.5411 63.2854 96.004C63.2854 96.467 63.1015 96.911 62.7741 97.2383C62.4468 97.5657 62.0028 97.7496 61.5398 97.7496Z" fill="#F8FFFF"/>
<path d="M79.4205 89.0219C77.0105 89.0219 75.0567 90.9757 75.0567 93.3858V93.8461C75.0538 94.6954 75.289 95.5284 75.7356 96.2508C76.1822 96.9732 76.8223 97.5559 77.5834 97.9328C77.9353 98.1087 78.2175 98.3983 78.3842 98.7546C78.551 99.1109 78.5925 99.513 78.5021 99.8959C78.4117 100.279 78.1946 100.62 77.8861 100.864C77.5775 101.108 77.1956 101.241 76.8022 101.241H71.5656C70.6016 101.241 69.8201 100.459 69.8201 99.4951V98.7691C69.8201 98.206 70.2766 97.7496 70.8396 97.7496C71.6153 97.7496 72.1215 96.9045 71.9002 96.161C71.6776 95.4126 71.564 94.633 71.5656 93.8461C71.5656 91.1818 69.4058 89.0219 66.7415 89.0219H45.3827C44.4187 89.0219 43.6372 88.2404 43.6372 87.2764C43.6372 86.3124 44.4187 85.5309 45.3827 85.5309H82.0388C83.0028 85.5309 83.7843 86.3124 83.7843 87.2764C83.7843 88.2404 83.0028 89.0219 82.0388 89.0219H79.4205Z" fill="#F8FFFF"/>
<path d="M99.4941 62.839C99.4941 63.8031 98.7126 64.5846 97.7486 64.5846C96.7845 64.5846 96.003 63.8031 96.003 62.839V47.5657C96.0024 46.9872 95.7723 46.4326 95.3633 46.0236C94.9542 45.6145 94.3996 45.3844 93.8211 45.3838H41.8917C40.5034 45.3853 39.1723 45.9375 38.1906 46.9193C37.2089 47.901 36.6567 49.232 36.6551 50.6203V61.0935C36.6551 62.0575 35.8736 62.839 34.9096 62.839C33.9456 62.839 33.1641 62.0575 33.1641 61.0935V50.6203C33.1667 48.3064 34.0871 46.0881 35.7232 44.4519C37.3594 42.8157 39.5778 41.8953 41.8917 41.8927H93.8211C95.3252 41.8944 96.7671 42.4926 97.8307 43.5561C98.8942 44.6197 99.4924 46.0616 99.4941 47.5657V62.839Z" fill="#F8FFFF"/>
<path d="M82.0387 78.5487H43.6371C42.6731 78.5487 41.8916 79.3302 41.8916 80.2942C41.8916 81.2583 42.6731 82.0398 43.6371 82.0398H82.0387C83.0028 82.0398 83.7843 81.2583 83.7843 80.2942C83.7843 79.3302 83.0028 78.5487 82.0387 78.5487Z" fill="#F8FFFF"/>
<path d="M19.2001 27.9284C19.1998 28.6852 19.2345 29.4415 19.304 30.1947C19.3547 30.7446 18.9724 31.2475 18.4251 31.3207L16.9461 31.5184C16.399 31.5915 15.8942 31.2076 15.8408 30.6581C15.8388 30.637 15.8367 30.6159 15.8347 30.5947C15.7672 29.8819 15.0163 29.4328 14.4114 29.8158C12.5088 31.0204 10.967 32.7334 9.96922 34.774C8.74948 37.2686 8.41553 40.1042 9.02235 42.814C9.62917 45.5237 11.1406 47.9461 13.3078 49.6822C15.475 51.4184 18.1688 52.3649 20.9456 52.3658H27.9277C28.8918 52.3658 29.6733 53.1473 29.6733 54.1113C29.6733 55.0754 28.8918 55.8569 27.9277 55.8569H20.9456C17.2282 55.8563 13.6314 54.5377 10.7945 52.1354C7.95756 49.7332 6.06426 46.4029 5.45109 42.7364C4.83792 39.0699 5.54459 35.3048 7.44552 32.1101C9.23658 29.1002 11.9785 26.7804 15.2295 25.5101C15.5945 25.3675 15.8559 25.0377 15.9024 24.6487C16.699 17.9773 19.8729 11.8073 24.8539 7.27702C29.7464 2.8272 36.0489 0.262621 42.6364 0.0190834C43.1887 -0.00133745 43.6375 0.44843 43.6375 1.00117V2.49215C43.6375 3.04401 43.1901 3.48941 42.6387 3.51253C36.5229 3.76892 30.7109 6.31105 26.3655 10.6564C21.7841 15.2378 19.2072 21.4494 19.2001 27.9284Z" fill="#F8FFFF"/>
<path d="M99.0564 36.4669C99.2831 37.4049 98.5947 38.2826 97.6371 38.402C96.6822 38.5212 95.8234 37.8393 95.5679 36.9115C94.9397 34.6296 93.6586 32.5658 91.8646 30.9842C89.6326 29.0165 86.7598 27.9301 83.7843 27.9284C83.2722 27.9294 82.7606 27.9629 82.2526 28.0288C82.005 28.0598 81.7536 28.0372 81.5155 27.9628C81.2773 27.8883 81.0579 27.7637 80.872 27.5972C80.6861 27.4307 80.538 27.2263 80.4378 26.9978C80.3376 26.7693 80.2876 26.5219 80.2911 26.2724L80.2933 26.1851C80.2944 24.9052 79.9434 23.6497 79.2789 22.5558C78.6143 21.462 77.6617 20.572 76.5253 19.9831C75.3889 19.3943 74.1124 19.1294 72.8355 19.2173C71.5587 19.3052 70.3306 19.7426 69.2856 20.4816C69.0659 20.6369 68.8134 20.7393 68.5477 20.7809C68.2819 20.8225 68.0102 20.8022 67.7536 20.7215C67.497 20.6408 67.2625 20.502 67.0684 20.3158C66.8743 20.1296 66.7258 19.9011 66.6345 19.6481C64.9218 14.921 61.7965 10.8351 57.6825 7.9448C53.5685 5.05446 48.665 3.49957 43.6372 3.49105V0C49.0348 0.00980503 54.3146 1.57856 58.8419 4.51762C63.3691 7.45668 66.951 11.6409 69.1568 16.5672C70.6143 15.9382 72.1958 15.6487 73.7816 15.7205C75.3674 15.7922 76.9162 16.2234 78.311 16.9814C79.7058 17.7394 80.9101 18.8045 81.8329 20.0961C82.7558 21.3878 83.3731 22.8722 83.6382 24.4374H83.7843C87.6104 24.4403 91.3041 25.838 94.1735 28.3688C96.6038 30.5124 98.3016 33.3442 99.0564 36.4669Z" fill="#F8FFFF"/>
</svg>
