<svg width="101" height="106" viewBox="0 0 101 106" fill="none" xmlns="http://www.w3.org/2000/svg">
<path d="M2.27741 55.2735L18.4033 66.3936V98.3608C18.4033 102.241 21.5489 105.387 25.4291 105.387H74.6095C78.4897 105.387 81.6353 102.241 81.6353 98.3608V66.3936L97.7594 55.2735C99.1861 54.29 100.038 52.6679 100.038 50.9351C100.038 49.2023 99.1861 47.5802 97.7594 46.5967L81.6353 35.4802V7.02577C81.6353 3.14555 78.4897 0 74.6095 0H25.4291C21.5489 0 18.4033 3.14555 18.4033 7.02577V35.4802L2.27741 46.5984C0.851436 47.582 0 49.2037 0 50.936C0 52.6683 0.851436 54.2899 2.27741 55.2735ZM81.6353 39.7448L95.7659 49.4913C96.2409 49.8192 96.5246 50.3596 96.5246 50.9369C96.5246 51.5141 96.2409 52.0545 95.7659 52.3824L81.6353 62.1272V39.7448ZM63.5281 3.51289L61.2746 5.9157C60.6109 6.62352 59.684 7.02531 58.7137 7.02577H41.3249C40.3542 7.02453 39.4271 6.62292 38.7622 5.9157L36.5105 3.51289H63.5281ZM21.9162 37.3227L22.603 36.8484C23.1883 36.4442 23.472 35.7269 23.3215 35.0317C23.1711 34.3365 22.6162 33.8006 21.9162 33.6745V7.02577C21.9162 5.08566 23.489 3.51289 25.4291 3.51289H31.6943L36.1996 8.31852C37.5299 9.73208 39.3838 10.5351 41.3249 10.5387H58.7137C60.655 10.5364 62.5094 9.73312 63.839 8.31852L68.3443 3.51289H74.6095C76.5496 3.51289 78.1224 5.08566 78.1224 7.02577V33.6745C77.4223 33.8006 76.8675 34.3365 76.717 35.0317C76.5666 35.7269 76.8503 36.4442 77.4356 36.8484L78.1224 37.3227V64.5475L51.0152 83.2449C50.415 83.6585 49.6218 83.6585 49.0216 83.2449L21.9162 64.551V37.3227ZM21.9162 68.8174L47.0333 86.136C48.8372 87.37 51.2137 87.37 53.0175 86.136L78.1224 68.8174V89.5786C78.1224 91.5187 76.5496 93.0915 74.6095 93.0915H25.4291C23.489 93.0915 21.9162 91.5187 21.9162 89.5786V68.8174ZM21.9162 95.6278C22.9795 96.26 24.1921 96.5971 25.4291 96.6044H74.6095C75.8465 96.5971 77.0591 96.26 78.1224 95.6278V98.3608C78.1224 100.301 76.5496 101.874 74.6095 101.874H25.4291C23.489 101.874 21.9162 100.301 21.9162 98.3608V95.6278ZM4.27273 49.4913L18.4033 39.7413V62.1289L4.27097 52.3824C3.79589 52.0545 3.51226 51.5141 3.51226 50.9369C3.51226 50.3596 3.79589 49.8192 4.27097 49.4913H4.27273Z" fill="#F8FFFF"/>
<path d="M38.4636 25.5369C38.8188 25.5361 39.1655 25.4277 39.4578 25.226L42.8284 22.9004C43.3624 22.5514 43.6652 21.9404 43.6194 21.3041C43.5736 20.6679 43.1865 20.1064 42.6081 19.8375C42.0296 19.5685 41.3509 19.6343 40.8348 20.0093L37.466 22.3331C36.8317 22.7693 36.5553 23.5676 36.7842 24.3026C37.013 25.0376 37.6938 25.5379 38.4636 25.5369Z" fill="#F8FFFF"/>
<path d="M30.724 26.9825L27.3622 29.308C26.5843 29.8656 26.396 30.9433 26.9388 31.7317C27.4816 32.52 28.5555 32.7286 29.354 32.2009L32.7246 29.8753C33.5025 29.3177 33.6908 28.24 33.148 27.4517C32.6052 26.6634 31.5312 26.4547 30.7328 26.9825H30.724Z" fill="#F8FFFF"/>
<path d="M49.5705 18.2513L50.0202 17.9421L50.4698 18.2513C51.2676 18.7727 52.3357 18.5627 52.8768 17.7781C53.4178 16.9934 53.2344 15.9205 52.4634 15.3601L51.0161 14.3625C50.4163 13.9496 49.624 13.9496 49.0243 14.3625L47.577 15.3601C46.806 15.9205 46.6226 16.9934 47.1636 17.7781C47.7047 18.5627 48.7727 18.7727 49.5705 18.2513Z" fill="#F8FFFF"/>
<path d="M60.5833 25.226C61.3817 25.7537 62.4557 25.545 62.9984 24.7567C63.5412 23.9684 63.3529 22.8907 62.5751 22.3331L59.2044 20.0093C58.6895 19.6059 57.9931 19.5221 57.3972 19.7917C56.8012 20.0613 56.4045 20.6397 56.3676 21.2928C56.3306 21.9459 56.6597 22.5653 57.2214 22.9004L60.5833 25.226Z" fill="#F8FFFF"/>
<path d="M70.6944 32.2009C71.2112 32.557 71.8787 32.6104 72.4455 32.3409C73.0122 32.0714 73.3922 31.52 73.4422 30.8945C73.4923 30.2689 73.2047 29.6641 72.688 29.308L69.3174 26.9825C68.5189 26.4547 67.4449 26.6634 66.9022 27.4517C66.3594 28.24 66.5477 29.3177 67.3256 29.8753L70.6944 32.2009Z" fill="#F8FFFF"/>
<path d="M50.0204 61.4754C50.3496 61.4754 50.6722 61.3829 50.9513 61.2084L65.0029 52.4262C65.5164 52.1052 65.8284 51.5423 65.8284 50.9367V35.1288C65.8284 34.5231 65.5164 33.9603 65.0029 33.6393L50.9513 24.8571C50.3817 24.5011 49.659 24.5011 49.0895 24.8571L35.0379 33.6393C34.5244 33.9603 34.2124 34.5231 34.2124 35.1288V50.9367C34.2124 51.5423 34.5244 52.1052 35.0379 52.4262L49.0895 61.2084C49.3686 61.3829 49.6912 61.4754 50.0204 61.4754ZM62.3155 49.9637L51.7768 56.5574V44.8858L62.3155 38.2991V49.9637ZM50.0204 28.4174L60.7575 35.1288L50.0204 41.8401L39.2833 35.1288L50.0204 28.4174ZM48.264 56.5574L37.7253 49.9707V38.2991L48.264 44.8858V56.5574Z" fill="#F8FFFF"/>
</svg>
