<svg width="105" height="105" viewBox="0 0 105 105" fill="none" xmlns="http://www.w3.org/2000/svg">
<path d="M48.9139 97.828H55.9016C56.8664 97.828 57.6485 97.0458 57.6485 96.081C57.6485 95.1163 56.8664 94.3341 55.9016 94.3341H48.9139C47.9492 94.3341 47.167 95.1163 47.167 96.081C47.167 97.0458 47.9492 97.828 48.9139 97.828Z" fill="#F8FFFF"/>
<path d="M22.7098 26.2039C23.6746 26.2039 24.4567 25.4217 24.4567 24.457V13.9754H80.3584V27.9508C80.3584 28.9156 81.1406 29.6978 82.1054 29.6978C83.0701 29.6978 83.8523 28.9156 83.8523 27.9508V6.98771C83.8523 3.84324 79.8204 0 75.1176 0H29.6975C24.876 0.00567751 20.9686 3.91312 20.9629 8.73464V24.457C20.9629 25.4217 21.7451 26.2039 22.7098 26.2039ZM24.4567 8.73464C24.4567 5.8402 26.8031 3.49385 29.6975 3.49385H75.1176C78.1451 3.49385 80.3584 5.93955 80.3584 6.98771V10.4816H24.4567V8.73464Z" fill="#F8FFFF"/>
<path d="M82.1054 76.8649C81.1406 76.8649 80.3584 77.6471 80.3584 78.6118V87.3464H24.4567V80.3587C24.4567 79.394 23.6746 78.6118 22.7098 78.6118C21.7451 78.6118 20.9629 79.394 20.9629 80.3587V96.0811C20.9686 100.903 24.876 104.81 29.6975 104.816H75.1176C79.9392 104.81 83.8466 100.903 83.8523 96.0811V78.6118C83.8523 77.6471 83.0701 76.8649 82.1054 76.8649ZM80.3584 96.0811C80.3584 98.9755 78.0121 101.322 75.1176 101.322H29.6975C26.8031 101.322 24.4567 98.9755 24.4567 96.0811V90.8403H80.3584V96.0811Z" fill="#F8FFFF"/>
<path d="M48.9141 5.24072H45.4203C44.4555 5.24072 43.6733 6.02291 43.6733 6.98765C43.6733 7.95239 44.4555 8.73458 45.4203 8.73458H48.9141C49.8789 8.73458 50.661 7.95239 50.661 6.98765C50.661 6.02291 49.8789 5.24072 48.9141 5.24072Z" fill="#F8FFFF"/>
<path d="M59.3956 5.24072H55.9017C54.937 5.24072 54.1548 6.02291 54.1548 6.98765C54.1548 7.95239 54.937 8.73458 55.9017 8.73458H59.3956C60.3603 8.73458 61.1425 7.95239 61.1425 6.98765C61.1425 6.02291 60.3603 5.24072 59.3956 5.24072Z" fill="#F8FFFF"/>
<path d="M104.414 33.8223C104.082 33.4225 103.589 33.1912 103.069 33.1916H57.2155L56.3246 27.184C55.9313 24.6208 53.7328 22.7238 51.1397 22.7101H43.6733V26.2039H51.1397C52.0064 26.2033 52.7425 26.8383 52.8692 27.6958L58.9729 68.8971C59.3662 71.4603 61.5647 73.3572 64.1578 73.371H68.4518C69.3984 76.0879 72.3682 77.523 75.0848 76.5766C76.5865 76.0534 77.7672 74.8729 78.2905 73.371H85.921C86.8858 76.0999 89.8802 77.53 92.6089 76.565C95.3376 75.6001 96.7679 72.6058 95.803 69.8771C94.8382 67.1482 91.8438 65.7181 89.1151 66.6831C87.6225 67.2107 86.4486 68.3848 85.921 69.8771H78.2905C77.3438 67.1602 74.3741 65.7251 71.6574 66.6715C70.1557 67.1947 68.975 68.3752 68.4518 69.8771H64.1578C63.2931 69.8725 62.5598 69.2402 62.4284 68.3853L61.8728 64.6363H97.8281C98.6677 64.6357 99.3883 64.0378 99.5436 63.2126L104.784 35.2618C104.881 34.7508 104.745 34.223 104.414 33.8223ZM90.8404 69.8771C91.8051 69.8771 92.5873 70.6593 92.5873 71.6241C92.5873 72.5888 91.8051 73.371 90.8404 73.371C89.8756 73.371 89.0935 72.5888 89.0935 71.6241C89.0935 70.6593 89.8756 69.8771 90.8404 69.8771ZM73.3711 69.8771C74.3358 69.8771 75.118 70.6593 75.118 71.6241C75.118 72.5888 74.3358 73.371 73.3711 73.371C72.4064 73.371 71.6242 72.5888 71.6242 71.6241C71.6242 70.6593 72.4064 69.8771 73.3711 69.8771ZM96.3781 61.1425H61.3557L57.7344 36.6855H100.973L96.3781 61.1425Z" fill="#F8FFFF"/>
<path d="M45.4201 52.4078C45.4201 39.8653 35.2526 29.6978 22.7101 29.6978C10.1676 29.6978 0 39.8653 0 52.4078C0 64.9503 10.1676 75.1179 22.7101 75.1179C35.2464 75.1034 45.4057 64.9442 45.4201 52.4078ZM3.49385 52.4078C3.49385 41.795 12.0973 33.1916 22.7101 33.1916C33.3229 33.1916 41.9263 41.795 41.9263 52.4078C41.9263 63.0206 33.3229 71.624 22.7101 71.624C12.1025 71.6115 3.5063 63.0154 3.49385 52.4078Z" fill="#F8FFFF"/>
<path d="M24.4568 66.3832V64.3882C28.1867 63.4283 30.4322 59.6263 29.4722 55.8964C28.6783 52.8118 25.8952 50.6569 22.7099 50.6608C20.7802 50.6608 19.216 49.0967 19.216 47.167C19.216 45.2373 20.7802 43.6731 22.7099 43.6731C24.6396 43.6731 26.2037 45.2373 26.2037 47.167C26.2037 48.1317 26.9859 48.9139 27.9507 48.9139C28.9154 48.9139 29.6976 48.1317 29.6976 47.167C29.6856 43.9904 27.5327 41.2215 24.4568 40.4273V38.4324C24.4568 37.4676 23.6746 36.6854 22.7099 36.6854C21.7451 36.6854 20.9629 37.4676 20.9629 38.4324V40.4273C17.233 41.3873 14.9876 45.1893 15.9475 48.9192C16.7415 52.0038 19.5246 54.1586 22.7099 54.1547C24.6396 54.1547 26.2037 55.7189 26.2037 57.6486C26.2037 59.5783 24.6396 61.1424 22.7099 61.1424C20.7802 61.1424 19.216 59.5783 19.216 57.6486C19.216 56.6838 18.4338 55.9016 17.4691 55.9016C16.5044 55.9016 15.7222 56.6838 15.7222 57.6486C15.7342 60.8251 17.887 63.594 20.9629 64.3882V66.3832C20.9629 67.3479 21.7451 68.1301 22.7099 68.1301C23.6746 68.1301 24.4568 67.3479 24.4568 66.3832Z" fill="#F8FFFF"/>
<path d="M62.8895 41.9262H87.3465C88.3112 41.9262 89.0934 41.144 89.0934 40.1793C89.0934 39.2146 88.3112 38.4324 87.3465 38.4324H62.8895C61.9248 38.4324 61.1426 39.2146 61.1426 40.1793C61.1426 41.144 61.9248 41.9262 62.8895 41.9262Z" fill="#F8FFFF"/>
<path d="M92.5873 41.9262H96.0811C97.0459 41.9262 97.828 41.144 97.828 40.1793C97.828 39.2146 97.0459 38.4324 96.0811 38.4324H92.5873C91.6225 38.4324 90.8403 39.2146 90.8403 40.1793C90.8403 41.144 91.6225 41.9262 92.5873 41.9262Z" fill="#F8FFFF"/>
</svg>
